<?xml version="1.0" standalone="no"?>
<!DOCTYPE svg PUBLIC "-//W3C//DTD SVG 20010904//EN"
 "http://www.w3.org/TR/2001/REC-SVG-20010904/DTD/svg10.dtd">
<svg version="1.0" xmlns="http://www.w3.org/2000/svg"
 width="3858.000000pt" height="3121.000000pt" viewBox="0 0 3858.000000 3121.000000"
 preserveAspectRatio="xMidYMid meet">
<metadata>
Created by potrace 1.16, written by Peter Selinger 2001-2019
</metadata>
<g transform="translate(0.000000,3121.000000) scale(0.100000,-0.100000)"
fill="#000000" stroke="none">
<path d="M0 15605 l0 -15605 19290 0 19290 0 0 15605 0 15605 -19290 0 -19290
0 0 -15605z m25998 15213 c51 -11 56 -15 93 -72 21 -34 43 -67 49 -73 6 -7 24
-41 40 -75 16 -35 49 -92 74 -128 25 -36 46 -70 46 -76 0 -6 7 -17 15 -24 9
-7 33 -47 54 -89 64 -127 123 -236 131 -241 4 -3 15 -19 24 -37 9 -17 24 -38
34 -45 10 -7 32 -40 49 -73 89 -175 114 -220 137 -244 14 -14 45 -69 69 -121
24 -52 51 -101 61 -109 9 -7 16 -19 16 -25 0 -7 21 -44 48 -82 26 -38 60 -95
75 -127 15 -32 34 -60 43 -64 9 -3 30 -36 47 -72 16 -36 51 -97 77 -136 71
-106 82 -124 121 -200 79 -154 120 -227 134 -242 8 -8 15 -20 15 -28 0 -7 12
-24 28 -37 15 -13 42 -53 61 -89 19 -35 54 -102 79 -149 24 -47 48 -87 52 -90
4 -3 21 -35 38 -71 18 -37 39 -69 47 -73 8 -3 31 -39 51 -81 19 -41 39 -75 44
-75 5 0 13 -15 20 -34 16 -49 154 -277 172 -284 4 -2 8 -9 8 -16 0 -6 12 -28
26 -49 35 -52 84 -142 143 -264 32 -65 60 -108 77 -120 18 -11 45 -54 77 -123
53 -110 101 -189 124 -203 8 -5 38 -57 67 -115 72 -146 134 -263 151 -287 66
-92 123 -208 117 -236 -1 -9 -17 -21 -35 -27 -18 -6 -63 -22 -102 -37 -38 -14
-81 -24 -94 -21 -13 2 -60 -10 -105 -26 -44 -17 -101 -32 -126 -34 -25 -2 -67
-5 -95 -7 -27 -2 -60 -9 -72 -15 -12 -7 -34 -12 -50 -12 -15 -1 -39 -7 -53
-15 -14 -8 -40 -14 -58 -15 -18 0 -46 -7 -61 -14 -15 -8 -37 -15 -47 -15 -49
0 -155 -21 -209 -42 -33 -12 -87 -23 -120 -25 -33 -1 -81 -7 -107 -13 -27 -6
-67 -15 -90 -20 -24 -5 -72 -16 -108 -26 -36 -10 -83 -19 -105 -20 -22 -1 -56
-7 -75 -12 -76 -24 -127 -36 -160 -37 -48 -3 -95 -15 -143 -36 -28 -13 -48
-16 -69 -9 -28 8 -42 6 -83 -11 -50 -21 -103 -33 -132 -31 -17 1 -46 -5 -63
-14 -19 -10 -42 -14 -57 -10 -15 3 -53 -4 -98 -20 -40 -14 -91 -25 -112 -25
-21 -1 -49 -7 -62 -14 -14 -8 -31 -12 -38 -9 -7 3 -34 -2 -60 -11 -87 -29
-217 -59 -258 -60 -22 -1 -62 -9 -90 -18 -27 -9 -66 -19 -85 -22 -67 -11 -81
-15 -157 -41 -53 -19 -86 -25 -110 -20 -34 6 -55 2 -148 -30 -27 -9 -59 -17
-70 -16 -10 0 -58 -11 -105 -24 -47 -13 -108 -24 -135 -23 -28 0 -72 -5 -100
-12 -27 -6 -72 -14 -100 -16 -27 -3 -59 -9 -70 -13 -19 -8 -46 -17 -110 -40
-16 -5 -57 -15 -90 -21 -33 -6 -73 -16 -90 -22 -16 -6 -46 -11 -66 -10 -19 1
-67 -10 -105 -25 -38 -14 -88 -27 -112 -28 -23 -2 -50 -6 -60 -10 -30 -13
-103 -26 -218 -38 -61 -7 -117 -17 -125 -23 -23 -18 -114 -44 -150 -43 -19 1
-65 -11 -104 -25 -38 -15 -90 -28 -115 -31 -67 -5 -143 -20 -159 -30 -8 -4
-35 -9 -60 -11 -58 -3 -130 -17 -156 -31 -11 -6 -26 -8 -32 -6 -7 3 -29 -1
-48 -7 -20 -7 -59 -16 -88 -20 -132 -21 -137 -24 -137 -96 0 -30 -3 -54 -8
-54 -4 0 -7 17 -7 38 1 55 -3 60 -49 67 -34 5 -54 1 -110 -25 -50 -23 -78 -31
-105 -27 -20 2 -47 0 -61 -6 -14 -5 -45 -14 -70 -18 -110 -20 -136 -26 -158
-38 -13 -7 -35 -10 -48 -7 -37 10 -191 -46 -210 -75 -3 -6 5 -23 19 -38 46
-46 82 -94 122 -161 22 -36 55 -81 75 -101 19 -20 51 -57 70 -84 19 -26 43
-55 53 -64 10 -9 27 -33 38 -53 10 -20 27 -43 36 -50 10 -7 25 -27 33 -43 9
-17 28 -36 44 -43 15 -8 45 -42 66 -75 22 -34 55 -80 76 -102 34 -38 96 -114
112 -139 4 -6 16 -16 26 -22 11 -6 24 -19 30 -30 36 -64 38 -62 32 24 -2 45
-1 80 3 77 4 -2 9 -37 10 -77 3 -101 16 -143 51 -168 17 -12 37 -34 44 -48 13
-26 49 -69 98 -120 12 -13 28 -36 34 -51 7 -16 26 -37 43 -47 17 -10 31 -22
31 -27 0 -20 74 -127 91 -132 11 -4 27 -21 35 -38 9 -18 33 -48 53 -68 20 -20
52 -58 71 -83 19 -26 44 -57 56 -69 12 -12 29 -37 38 -55 9 -18 28 -38 41 -44
14 -6 27 -18 30 -27 3 -9 19 -32 36 -51 16 -19 37 -47 45 -62 8 -16 19 -28 24
-28 5 0 19 -19 31 -42 12 -24 36 -59 53 -79 46 -54 66 -81 88 -116 11 -18 26
-33 34 -33 8 0 24 -15 34 -33 11 -19 31 -39 44 -47 14 -7 30 -25 36 -41 7 -15
21 -36 31 -45 11 -10 30 -35 41 -56 12 -21 25 -38 30 -38 5 0 17 -15 28 -32
31 -51 61 -89 108 -133 23 -23 42 -45 42 -51 0 -10 43 -62 95 -115 14 -15 25
-31 25 -37 0 -11 51 -76 114 -147 80 -89 96 -108 101 -125 3 -9 23 -31 45 -49
22 -18 40 -37 40 -43 0 -6 16 -28 35 -49 19 -22 35 -45 35 -52 0 -7 8 -22 19
-33 10 -11 23 -30 30 -42 6 -11 23 -27 38 -34 16 -8 47 -45 75 -93 27 -44 60
-86 73 -93 14 -7 25 -17 25 -21 0 -5 30 -46 66 -91 36 -45 70 -93 76 -106 6
-13 22 -31 35 -39 12 -9 23 -22 23 -30 0 -8 16 -25 35 -37 19 -13 39 -35 46
-50 6 -15 20 -35 30 -44 11 -10 30 -35 41 -56 12 -21 27 -38 34 -38 13 0 61
-66 90 -123 9 -18 33 -48 53 -68 20 -20 50 -55 66 -78 17 -24 45 -59 63 -78
17 -20 32 -40 32 -45 0 -5 27 -37 60 -70 34 -33 70 -78 80 -99 11 -21 28 -44
38 -51 11 -7 26 -27 35 -44 9 -17 40 -56 71 -86 30 -31 61 -69 69 -85 9 -16
27 -35 40 -42 14 -8 31 -26 37 -41 6 -15 25 -40 41 -56 16 -15 29 -31 29 -36
0 -22 72 -116 93 -122 17 -4 39 -31 73 -88 26 -46 59 -99 72 -118 42 -62 31
-78 -93 -142 -62 -32 -123 -57 -141 -58 -17 0 -92 -29 -167 -65 -75 -36 -146
-65 -158 -65 -26 0 -142 -41 -217 -75 -29 -14 -57 -25 -62 -25 -5 0 -35 -12
-67 -26 -75 -34 -140 -55 -182 -59 -18 -2 -76 -24 -128 -49 -52 -25 -108 -46
-124 -46 -16 0 -61 -15 -101 -34 -40 -18 -89 -39 -108 -46 -89 -30 -197 -60
-218 -60 -31 0 -62 -17 -94 -51 -20 -22 -36 -29 -63 -29 -28 0 -103 -28 -123
-45 -2 -2 4 -18 12 -37 9 -18 11 -25 4 -15 -36 53 -36 53 -49 40 -7 -7 -21
-13 -32 -13 -10 0 -43 -11 -73 -25 -78 -36 -164 -65 -191 -65 -13 0 -45 -11
-71 -24 -26 -13 -70 -31 -98 -39 -28 -8 -69 -24 -92 -36 -23 -12 -46 -21 -53
-21 -6 0 -45 -16 -86 -35 -41 -19 -85 -35 -96 -35 -25 0 -152 -42 -196 -65
-30 -15 -199 -73 -236 -80 -11 -2 -54 -20 -95 -39 -41 -19 -102 -42 -135 -52
-33 -9 -81 -28 -107 -41 -26 -13 -87 -36 -135 -52 -49 -15 -112 -40 -141 -54
-29 -14 -65 -25 -80 -25 -15 1 -54 -13 -87 -29 -33 -16 -88 -37 -122 -47 -34
-9 -91 -30 -127 -46 -36 -17 -76 -30 -90 -30 -23 0 -115 -40 -296 -130 -79
-38 -127 -52 -222 -65 -20 -2 -74 -23 -119 -45 -115 -59 -137 -53 -224 54 -16
20 -45 53 -62 72 -18 19 -33 41 -33 49 0 7 -11 22 -24 32 -13 10 -30 32 -39
48 -8 17 -25 41 -37 55 -12 14 -28 37 -36 52 -8 15 -22 33 -32 40 -11 7 -27
28 -36 46 -9 18 -25 38 -36 45 -11 6 -20 16 -20 21 0 5 -15 25 -32 46 -18 20
-46 61 -63 90 -16 29 -55 82 -86 119 -30 36 -64 81 -74 99 -11 17 -23 32 -27
32 -4 0 -17 18 -28 40 -11 22 -34 47 -50 55 -17 9 -30 20 -30 27 0 6 -15 28
-32 49 -18 21 -46 56 -63 79 -16 23 -44 58 -61 78 -17 20 -39 53 -49 72 -9 19
-35 56 -56 82 -21 25 -44 58 -50 72 -7 14 -27 35 -46 46 -18 10 -33 25 -33 32
0 7 -13 27 -29 44 -16 17 -36 44 -45 60 -9 16 -30 49 -46 74 -17 25 -37 60
-45 77 -8 18 -28 39 -45 48 -16 8 -46 41 -66 73 -20 31 -52 74 -70 95 -19 20
-34 41 -34 47 0 9 -23 38 -87 108 -18 19 -33 39 -33 44 0 5 -21 30 -47 57 -27
26 -61 71 -77 101 -16 30 -40 64 -53 76 -13 12 -23 26 -23 31 0 5 -13 22 -29
37 -16 16 -35 41 -41 57 -7 15 -23 35 -36 44 -13 8 -24 22 -24 30 0 7 -11 22
-24 32 -13 10 -31 34 -41 53 -17 34 -50 77 -99 130 -13 14 -31 39 -40 57 -9
18 -22 36 -29 40 -8 4 -35 42 -60 85 -41 67 -66 101 -110 146 -6 6 -20 21 -31
31 -46 48 -76 83 -76 92 0 5 -15 26 -34 46 -18 21 -41 53 -50 71 -9 17 -21 32
-26 32 -5 0 -16 12 -24 28 -8 15 -28 41 -43 59 -15 17 -41 55 -58 84 -16 29
-39 62 -51 73 -12 12 -29 35 -38 53 -9 18 -25 37 -36 43 -11 6 -36 36 -56 68
-20 31 -51 73 -69 93 -18 20 -36 46 -40 58 -3 12 -19 28 -34 36 -16 8 -34 28
-41 45 -7 16 -16 30 -20 30 -4 0 -15 17 -23 38 -8 20 -29 52 -46 69 -17 18
-31 37 -31 43 0 5 -13 16 -28 24 -19 10 -38 35 -56 75 -16 36 -39 69 -58 82
-16 12 -37 37 -44 56 -8 19 -21 36 -30 40 -8 3 -23 22 -33 42 -11 20 -31 46
-45 58 -14 13 -26 28 -26 34 0 11 -33 52 -95 119 -12 14 -30 39 -39 57 -9 18
-22 36 -29 40 -7 4 -21 21 -30 36 -26 40 -56 77 -99 117 -20 19 -48 62 -62 94
-15 33 -43 76 -64 96 -20 21 -53 59 -72 84 -19 26 -44 57 -56 69 -12 12 -29
36 -38 54 -9 17 -25 38 -35 45 -11 8 -25 26 -32 41 -7 15 -16 27 -20 27 -4 0
-17 17 -30 38 -45 76 -88 139 -103 151 -42 35 1 93 96 129 29 12 80 34 112 51
33 17 72 31 88 31 35 0 193 52 260 86 37 19 60 24 82 20 25 -5 52 4 127 40 71
35 115 50 181 60 73 11 108 24 227 84 78 38 153 70 168 70 16 0 52 11 81 25
30 14 62 25 72 25 9 0 52 11 94 25 42 14 94 25 115 25 28 0 80 19 173 64 109
52 145 65 198 69 56 4 87 16 219 81 86 43 166 76 183 76 16 0 39 5 50 11 11 6
52 20 90 30 38 11 101 35 139 54 38 20 69 33 69 30 0 -3 17 2 37 10 23 10 49
13 67 9 23 -5 52 4 135 44 139 65 166 75 226 77 37 1 74 14 142 48 51 26 98
47 105 47 7 0 41 13 76 30 40 19 78 29 105 29 27 0 63 10 102 29 33 16 92 39
130 51 39 12 92 33 118 47 27 14 67 27 90 30 23 4 84 26 136 50 80 38 101 44
135 39 36 -6 57 1 176 59 74 36 147 66 163 66 15 0 54 14 87 30 33 17 74 30
91 30 37 0 129 47 129 67 0 21 -66 147 -86 164 -9 8 -32 45 -50 83 -18 37 -40
76 -48 85 -8 9 -26 41 -40 72 -13 30 -32 61 -41 69 -10 8 -29 33 -43 55 -14
22 -31 45 -39 50 -7 6 -33 53 -58 105 -28 60 -57 106 -79 125 -20 16 -46 55
-59 86 -14 31 -30 60 -36 63 -6 4 -17 22 -25 40 -7 17 -20 38 -28 46 -8 8 -28
45 -45 83 -18 37 -36 67 -42 67 -11 0 -62 73 -93 133 -11 23 -24 44 -28 47 -5
3 -19 30 -33 61 -13 31 -36 67 -50 80 -14 13 -38 51 -53 84 -14 33 -46 88 -70
123 -24 35 -44 67 -44 72 0 5 -13 22 -29 37 -16 16 -45 63 -65 103 -21 41 -42
80 -48 87 -6 7 -23 40 -39 73 -16 33 -35 63 -44 66 -9 4 -23 21 -32 38 -9 17
-19 33 -23 36 -4 3 -20 28 -34 55 -79 145 -94 169 -105 173 -7 2 -32 43 -56
91 -81 163 -127 242 -141 248 -8 3 -22 19 -30 36 -9 16 -20 35 -26 41 -16 18
-55 88 -86 152 -17 34 -37 66 -45 71 -20 10 -118 167 -157 250 -16 34 -38 67
-48 75 -11 7 -36 46 -56 86 -20 39 -40 72 -45 72 -12 0 -77 128 -86 169 -4 18
-22 50 -40 70 -18 20 -40 54 -50 76 -10 22 -31 59 -47 82 -15 23 -28 45 -28
49 0 5 -13 22 -29 39 -33 34 -122 177 -154 245 -11 25 -35 61 -52 81 -37 41
-98 180 -93 212 2 12 14 27 28 34 76 39 131 58 185 64 69 8 135 23 185 43 19
8 70 19 113 26 44 6 102 18 130 26 64 19 138 33 197 39 25 3 52 8 60 11 8 4
33 10 55 15 36 7 136 33 225 60 19 6 58 14 87 19 29 4 78 20 110 35 43 20 67
24 94 20 23 -4 50 -1 73 9 20 8 36 13 36 10 0 -2 16 3 36 11 20 8 49 15 65 15
15 0 31 5 34 10 3 6 20 10 36 10 16 0 47 9 69 20 22 11 55 20 73 20 19 0 68
11 108 24 95 30 169 50 244 65 33 7 76 17 96 22 20 5 47 9 61 9 13 0 28 4 33
8 8 7 69 21 155 36 8 1 24 5 36 9 12 4 50 11 85 16 35 5 87 16 114 24 181 55
266 79 310 88 28 5 68 13 90 19 22 5 87 20 145 34 58 13 118 29 133 35 16 6
41 11 56 11 15 0 31 4 36 9 11 10 73 20 145 25 52 3 77 10 140 39 55 25 99 37
170 47 30 4 88 19 128 33 40 14 79 24 87 21 8 -3 31 0 52 7 21 8 58 14 83 14
26 1 80 15 127 33 45 18 96 32 112 32 17 0 72 14 123 30 51 17 100 30 110 30
22 0 153 36 170 46 7 5 34 12 60 16 27 4 69 12 96 17 26 5 67 13 92 16 25 4
72 16 104 26 33 11 76 19 97 19 20 0 57 8 81 18 24 11 68 21 99 25 31 3 78 12
105 21 27 8 76 20 109 27 33 6 92 23 130 36 39 14 93 29 120 34 85 17 127 27
205 49 41 11 93 25 115 29 22 5 60 16 84 25 24 9 67 16 95 16 29 0 59 7 70 15
11 8 40 15 65 16 25 0 75 10 110 22 75 26 146 31 219 15z m8153 -2913 c24 -9
56 -28 71 -43 15 -15 34 -34 42 -42 62 -61 92 -102 142 -197 10 -18 26 -35 36
-38 18 -6 52 -50 115 -150 21 -32 56 -78 78 -101 79 -82 93 -99 110 -134 10
-19 41 -62 70 -95 29 -33 60 -75 69 -92 9 -18 20 -33 25 -33 5 0 24 -25 42
-56 19 -31 54 -77 79 -103 25 -25 60 -75 78 -109 19 -35 44 -68 55 -73 12 -6
39 -38 60 -73 20 -34 48 -73 62 -86 14 -13 25 -30 25 -37 0 -8 16 -30 35 -50
19 -20 35 -40 35 -44 0 -5 26 -39 58 -76 32 -38 68 -85 81 -105 12 -21 27 -38
32 -38 4 0 15 -13 23 -29 19 -35 50 -74 98 -121 21 -20 51 -66 68 -103 20 -44
39 -71 60 -83 16 -10 30 -24 30 -31 0 -7 29 -46 65 -87 36 -41 65 -79 65 -85
0 -11 24 -40 93 -113 15 -17 34 -42 43 -57 8 -14 35 -51 60 -81 25 -30 54 -69
64 -86 11 -17 30 -36 43 -43 13 -7 38 -45 59 -91 24 -50 45 -81 58 -85 11 -4
27 -18 34 -33 8 -15 26 -39 40 -54 14 -15 26 -30 26 -34 0 -4 10 -21 23 -38
12 -17 29 -43 36 -58 8 -15 22 -30 32 -33 18 -6 89 -103 89 -121 0 -5 12 -24
28 -41 73 -84 102 -122 102 -132 0 -7 13 -26 30 -44 86 -94 100 -111 100 -123
0 -7 16 -25 36 -40 32 -25 47 -46 94 -136 9 -15 28 -40 43 -54 15 -13 27 -28
27 -33 0 -4 8 -16 18 -27 10 -10 28 -34 41 -53 25 -34 37 -49 96 -115 19 -22
35 -45 35 -52 0 -7 18 -26 39 -44 22 -17 43 -41 47 -53 9 -29 52 -96 81 -127
36 -38 131 -161 151 -195 9 -16 28 -41 42 -55 14 -14 34 -42 45 -64 10 -21 36
-57 56 -79 20 -23 43 -56 52 -74 9 -17 26 -34 37 -38 11 -4 30 -25 41 -47 25
-48 33 -59 80 -107 19 -20 42 -47 51 -61 18 -29 53 -73 84 -104 12 -11 33 -43
47 -71 14 -27 42 -70 64 -95 21 -25 44 -58 51 -73 6 -15 19 -30 27 -34 9 -3
25 -23 36 -44 11 -22 28 -45 39 -51 11 -7 20 -18 20 -25 0 -7 16 -24 35 -39
19 -14 41 -38 49 -53 7 -14 28 -52 45 -83 47 -84 42 -94 -64 -150 -49 -26
-101 -47 -115 -48 -31 0 -154 -42 -211 -70 -54 -28 -125 -51 -169 -54 -19 -2
-81 -26 -137 -55 -57 -28 -108 -51 -114 -51 -6 0 -41 -13 -79 -30 -38 -17 -86
-30 -107 -30 -27 0 -71 -15 -134 -46 -110 -54 -170 -74 -221 -74 -23 0 -72
-16 -125 -41 -49 -23 -106 -45 -128 -49 -22 -5 -62 -13 -90 -18 -27 -5 -80
-23 -117 -41 -36 -17 -71 -31 -77 -31 -6 0 -42 -14 -78 -30 -46 -21 -76 -29
-94 -25 -20 5 -52 -6 -126 -43 -54 -27 -147 -64 -208 -82 -60 -18 -146 -50
-189 -71 -43 -21 -83 -36 -87 -33 -5 3 -41 -5 -81 -17 -40 -12 -81 -24 -91
-26 -9 -1 -49 -19 -87 -38 -38 -19 -83 -35 -100 -35 -17 0 -61 -15 -98 -34
-37 -18 -92 -39 -122 -46 -30 -8 -67 -20 -82 -27 -15 -7 -40 -13 -55 -13 -15
0 -50 -11 -78 -23 -27 -13 -66 -26 -86 -30 -20 -3 -62 -17 -93 -31 -31 -14
-69 -26 -84 -26 -15 0 -74 -23 -132 -51 -58 -28 -121 -52 -140 -54 -19 -2 -54
-13 -76 -24 -57 -28 -241 -91 -289 -100 -22 -4 -50 -13 -61 -19 -41 -22 -159
-64 -189 -67 -48 -4 -116 -25 -169 -52 -27 -14 -59 -27 -72 -29 -25 -5 -183
-79 -197 -93 -5 -5 10 -40 36 -83 25 -40 57 -99 72 -130 15 -31 33 -59 40 -62
8 -3 30 -36 49 -75 20 -38 44 -75 54 -83 10 -7 33 -42 50 -78 18 -36 45 -85
62 -110 16 -25 38 -62 50 -82 11 -20 28 -43 38 -50 10 -7 34 -44 54 -83 78
-154 110 -211 137 -240 37 -41 74 -100 142 -230 17 -33 43 -73 58 -90 15 -16
44 -68 65 -115 21 -47 48 -96 61 -110 61 -64 96 -111 111 -146 9 -22 26 -52
39 -69 12 -16 25 -39 29 -50 3 -11 17 -33 31 -49 14 -16 25 -34 25 -41 0 -6
12 -22 26 -36 15 -13 48 -70 74 -125 26 -56 56 -108 67 -115 22 -16 59 -76
102 -165 16 -34 34 -65 40 -69 6 -3 17 -21 25 -38 7 -18 23 -43 35 -56 11 -13
21 -29 21 -36 0 -6 12 -22 26 -36 14 -13 38 -49 52 -79 14 -30 36 -68 49 -83
13 -16 23 -34 23 -40 0 -6 12 -24 27 -39 29 -30 81 -119 133 -227 17 -35 57
-94 89 -130 41 -46 72 -96 104 -166 25 -55 67 -126 92 -159 26 -32 60 -87 77
-123 17 -35 40 -72 52 -81 12 -9 32 -41 45 -69 13 -29 35 -63 48 -75 14 -13
40 -54 60 -93 75 -151 101 -197 125 -223 39 -42 69 -89 105 -165 18 -38 42
-81 53 -94 27 -35 25 -47 -12 -90 -79 -89 -84 -93 -132 -93 -24 0 -47 -4 -50
-9 -3 -5 -23 -11 -43 -14 -104 -16 -234 -46 -249 -58 -7 -5 -29 -11 -50 -14
-22 -2 -60 -11 -86 -19 -25 -8 -49 -12 -52 -9 -3 3 -12 -2 -21 -11 -9 -9 -31
-16 -48 -16 -18 0 -41 -7 -51 -15 -11 -8 -39 -15 -63 -15 -23 0 -57 -6 -75
-14 -69 -28 -204 -67 -235 -66 -17 0 -42 -4 -55 -9 -13 -5 -26 -9 -31 -10 -4
0 -23 -8 -43 -16 -20 -8 -50 -15 -66 -15 -16 0 -41 -6 -56 -13 -15 -7 -34 -13
-42 -12 -8 0 -51 -12 -95 -28 -44 -16 -100 -31 -125 -33 -168 -15 -237 -26
-275 -46 -16 -8 -55 -21 -85 -27 -30 -7 -68 -17 -85 -23 -31 -11 -81 -21 -150
-33 -22 -3 -60 -14 -85 -24 -66 -27 -114 -41 -137 -41 -11 0 -37 -7 -57 -15
-20 -9 -47 -13 -60 -9 -13 3 -33 1 -43 -5 -11 -5 -38 -12 -60 -15 -23 -2 -55
-12 -72 -21 -17 -8 -34 -15 -38 -15 -5 0 -23 -5 -41 -11 -18 -6 -42 -9 -53 -6
-11 3 -50 -5 -87 -18 -37 -13 -101 -31 -142 -40 -41 -9 -95 -23 -120 -31 -25
-8 -55 -14 -68 -14 -13 0 -35 -6 -50 -14 -30 -15 -104 -28 -142 -25 -51 4 -66
1 -123 -25 -53 -25 -82 -33 -192 -55 -22 -5 -57 -16 -77 -25 -21 -9 -57 -16
-82 -16 -27 0 -75 -13 -123 -32 -57 -23 -92 -31 -129 -30 -31 1 -80 -7 -125
-22 -41 -13 -88 -26 -106 -29 -17 -4 -55 -18 -84 -32 -36 -17 -69 -25 -103
-25 -96 1 -151 -8 -221 -34 -38 -14 -79 -26 -90 -26 -10 0 -37 -6 -60 -14 -22
-8 -67 -19 -100 -26 -33 -6 -76 -16 -95 -22 -35 -11 -97 -24 -155 -33 -16 -2
-61 -16 -100 -31 -38 -14 -90 -28 -115 -29 -25 -2 -92 -19 -150 -39 -74 -26
-117 -36 -145 -33 -22 2 -51 -1 -65 -6 -14 -5 -43 -13 -65 -18 -22 -4 -67 -17
-99 -28 -33 -12 -75 -21 -94 -21 -20 0 -49 -4 -66 -9 -74 -22 -178 -46 -256
-60 -25 -4 -74 -22 -110 -40 -52 -27 -69 -32 -90 -24 -19 7 -44 3 -108 -19
-48 -17 -90 -27 -102 -23 -12 4 -36 9 -55 11 -19 2 -56 12 -82 22 -44 16 -51
22 -83 88 -19 39 -44 84 -54 100 -11 16 -35 59 -54 97 -18 37 -37 67 -42 67
-11 0 -69 88 -107 165 -65 130 -106 201 -128 220 -12 11 -39 58 -60 105 -21
47 -51 99 -66 115 -15 17 -41 58 -58 92 -17 34 -39 68 -49 75 -9 7 -37 51 -61
98 -115 228 -158 309 -179 338 -12 17 -29 48 -36 69 -7 22 -25 46 -44 58 -32
21 -33 23 -80 127 -17 37 -49 94 -72 128 -22 33 -54 88 -70 122 -16 33 -40 73
-54 87 -14 14 -45 69 -70 122 -24 53 -53 103 -64 111 -11 7 -34 42 -51 78 -17
35 -38 68 -47 73 -9 5 -42 61 -73 125 -100 201 -131 256 -162 284 -16 15 -29
33 -29 41 0 7 -8 22 -18 33 -9 10 -31 46 -48 79 -82 159 -118 217 -139 227
-15 7 -40 46 -74 117 -59 119 -140 272 -157 293 -6 7 -23 38 -37 70 -14 31
-34 61 -44 67 -11 5 -32 38 -48 73 -15 35 -47 90 -70 123 -23 33 -54 89 -70
123 -16 35 -38 71 -50 81 -13 9 -46 66 -74 126 -28 60 -56 112 -61 115 -5 3
-32 56 -59 119 -38 83 -48 117 -41 130 5 10 41 32 80 50 58 27 79 32 111 27
25 -4 49 -1 67 7 47 24 209 77 235 77 14 0 38 7 53 15 16 8 41 13 55 10 14 -3
62 4 105 15 43 12 97 23 119 24 22 2 54 8 70 14 61 21 121 34 155 34 19 -1 64
10 100 23 41 15 83 24 115 23 28 -1 70 6 95 16 25 10 72 22 105 27 33 4 83 13
110 19 28 6 84 14 125 17 41 3 80 9 85 13 20 15 91 33 127 32 21 -1 66 11 110
30 40 17 93 32 118 34 44 2 94 12 175 33 126 33 209 51 236 51 16 0 44 6 62
13 18 8 47 12 64 10 18 -2 47 2 65 10 61 26 103 39 148 47 25 5 50 9 55 11 6
2 32 0 58 -5 30 -4 61 -3 82 4 19 6 57 12 85 14 28 1 54 6 58 12 8 10 52 14
52 5 0 -7 -43 -36 -50 -34 -3 1 -7 -7 -7 -19 -2 -15 2 -18 15 -13 9 4 40 10
67 13 28 2 53 10 57 16 5 8 10 8 19 -1 12 -12 55 -1 127 33 29 13 33 20 30 44
-3 19 0 26 8 23 16 -6 27 -33 13 -33 -6 0 -8 -4 -4 -10 3 -6 15 -6 29 0 13 5
26 6 29 4 3 -3 8 -1 11 4 3 6 -5 13 -18 16 -39 10 -40 33 -1 31 21 0 31 3 28
11 -2 7 0 15 6 19 7 3 11 -2 11 -13 0 -18 3 -19 24 -9 14 7 23 14 20 16 -2 2
6 11 18 19 23 17 74 30 158 41 30 4 65 12 77 19 12 7 35 12 52 12 17 0 54 9
83 20 29 11 78 20 108 20 31 1 79 10 110 21 30 12 75 22 100 24 42 2 108 22
155 46 11 5 43 9 70 9 92 -2 159 9 239 41 63 25 95 32 160 33 75 2 178 26 201
47 5 5 22 9 37 9 16 0 45 7 65 15 19 8 47 15 62 15 14 1 37 7 51 15 14 8 42
14 62 15 20 0 40 5 43 10 3 6 22 10 41 10 19 0 48 7 64 15 17 9 30 14 30 11 0
-2 17 1 38 6 38 10 96 20 212 37 36 5 79 14 95 21 39 16 155 33 225 34 30 1
60 4 65 8 25 16 138 48 172 48 21 1 63 10 93 21 30 12 76 22 101 24 25 1 55 8
67 14 11 6 36 11 54 11 19 0 38 4 43 9 6 5 28 11 50 14 68 8 135 37 135 58 0
28 -16 61 -44 94 -15 17 -34 42 -44 58 -9 15 -20 27 -24 27 -4 0 -15 15 -24
33 -16 33 -29 48 -108 129 -25 25 -46 52 -46 59 0 7 -11 27 -25 45 -14 18 -25
37 -25 42 0 5 -18 24 -40 43 -22 19 -40 38 -40 43 0 5 -15 25 -32 46 -64 73
-98 119 -98 130 0 6 -16 20 -35 31 -19 12 -35 27 -35 35 0 7 -21 36 -47 63
-68 71 -79 85 -108 131 -14 22 -30 40 -36 40 -5 0 -16 15 -24 33 -8 17 -41 61
-75 97 -34 36 -68 77 -75 91 -8 15 -21 29 -30 33 -8 3 -19 16 -24 29 -16 43
-81 136 -101 147 -11 6 -29 28 -39 48 -11 21 -31 44 -45 51 -14 8 -28 22 -31
32 -4 10 -16 26 -28 36 -13 10 -31 32 -42 49 -42 66 -81 113 -102 123 -13 6
-28 24 -35 40 -7 16 -26 45 -43 66 -77 94 -95 117 -95 124 0 4 -16 24 -35 44
-19 20 -35 41 -35 46 0 6 -13 18 -30 27 -16 10 -35 32 -42 48 -21 52 -72 124
-96 135 -12 6 -27 23 -33 38 -5 16 -21 39 -34 53 -43 45 -90 104 -104 131 -7
15 -24 32 -37 38 -13 5 -30 26 -38 45 -8 18 -27 42 -44 51 -16 10 -37 32 -46
49 -42 79 -60 105 -77 109 -9 3 -27 23 -38 46 -12 22 -34 47 -50 56 -16 8 -33
25 -37 37 -4 13 -34 55 -68 95 -34 40 -74 91 -91 113 -16 23 -45 58 -62 77
-18 20 -33 42 -33 49 0 12 -59 89 -95 124 -17 16 -36 37 -76 78 -14 15 -29 37
-33 49 -4 12 -25 36 -47 53 -21 18 -39 35 -39 40 0 16 -68 119 -101 153 -44
45 -109 126 -109 136 0 4 -11 13 -25 19 -13 6 -32 26 -41 44 -9 18 -25 42 -35
53 -51 56 -89 104 -89 113 0 5 -11 20 -25 33 -14 13 -35 41 -45 61 -11 20 -28
43 -38 50 -11 7 -22 23 -26 35 -4 12 -25 36 -46 53 -21 17 -41 39 -45 49 -3
10 -16 23 -29 29 -14 6 -32 27 -42 47 -9 20 -24 41 -33 48 -16 11 -48 60 -87
134 -9 17 -27 36 -40 42 -13 5 -30 23 -38 38 -8 16 -26 35 -40 42 -14 8 -28
23 -32 33 -3 10 -22 38 -42 63 -20 24 -53 65 -72 90 -44 59 -59 75 -71 75 -5
0 -21 24 -35 53 -15 28 -48 73 -74 99 -27 26 -51 56 -55 67 -3 10 -17 26 -30
35 -14 9 -25 23 -25 32 0 8 -19 34 -42 59 -109 112 -148 184 -117 221 20 25
185 104 216 104 16 0 53 12 83 26 30 14 77 33 103 41 27 8 63 22 80 32 45 25
93 41 154 51 28 5 100 32 159 59 58 28 112 51 119 51 7 0 59 23 116 51 81 40
109 49 134 45 25 -5 53 5 134 44 56 27 108 50 114 50 7 0 41 14 77 31 48 23
73 29 97 24 26 -5 53 5 142 50 61 30 116 55 123 55 7 0 42 14 76 30 35 17 77
30 93 30 16 0 51 11 77 24 27 13 97 41 157 61 61 20 114 40 120 44 5 5 69 27
140 51 72 23 171 62 221 85 50 24 111 47 134 50 24 4 65 17 91 31 27 13 54 24
60 24 6 0 45 16 86 35 41 19 88 35 104 35 16 0 56 14 89 30 33 17 72 30 87 30
38 0 110 23 173 55 29 15 61 28 72 30 11 2 50 17 86 34 37 16 90 32 118 35 38
3 93 25 200 79 82 41 167 80 189 86 22 7 60 22 85 33 24 11 55 22 68 24 13 3
55 20 93 39 38 19 80 35 94 35 37 0 136 35 229 82 59 30 92 40 124 40 25 -1
57 7 76 18 87 49 142 55 227 25z m-22270 -5695 l39 0 0 -73 c0 -40 -4 -77 -9
-82 -5 -6 -15 -39 -21 -75 -7 -36 -22 -101 -35 -145 -12 -44 -30 -127 -39
-185 -10 -57 -24 -112 -32 -121 -7 -8 -14 -29 -14 -45 0 -53 -21 -148 -40
-179 -9 -16 -20 -55 -23 -86 -3 -30 -14 -75 -25 -100 -11 -24 -28 -87 -37
-139 -9 -52 -23 -106 -31 -120 -8 -14 -18 -56 -23 -95 -5 -38 -17 -95 -26
-125 -9 -30 -19 -77 -22 -105 -3 -27 -12 -62 -20 -78 -12 -24 -35 -114 -65
-262 -6 -27 -21 -85 -34 -127 -13 -42 -24 -87 -24 -100 0 -13 -7 -36 -15 -52
-8 -15 -15 -40 -15 -55 0 -14 -6 -38 -13 -52 -8 -14 -17 -56 -21 -93 -4 -38
-13 -80 -20 -95 -7 -14 -16 -48 -20 -76 -3 -27 -15 -79 -25 -115 -11 -36 -26
-92 -35 -125 -8 -33 -22 -80 -32 -105 -9 -25 -18 -58 -20 -75 -8 -63 -16 -185
-13 -186 2 0 117 -2 254 -5 138 -2 333 -6 435 -10 102 -3 340 -7 530 -10 190
-2 392 -6 450 -9 58 -2 294 -7 525 -9 231 -3 476 -8 545 -11 69 -3 225 -8 348
-10 123 -3 228 -7 233 -10 18 -11 9 -65 -30 -184 -22 -66 -44 -128 -50 -139
-9 -18 -45 -136 -58 -192 -3 -14 -11 -31 -17 -39 -14 -18 -35 -75 -50 -136 -4
-16 -14 -43 -21 -60 -21 -46 -65 -184 -77 -240 -6 -27 -17 -57 -24 -66 -8 -8
-14 -23 -14 -31 0 -9 -7 -21 -15 -28 -8 -7 -15 -21 -15 -31 0 -10 -4 -21 -10
-24 -5 -3 -10 -17 -10 -29 0 -13 -16 -68 -36 -122 -20 -55 -42 -124 -50 -154
-8 -30 -19 -63 -24 -72 -6 -10 -10 -25 -10 -35 0 -9 -6 -24 -13 -32 -17 -20
-44 -93 -53 -143 -3 -21 -12 -42 -20 -49 -8 -6 -14 -21 -14 -33 0 -25 -26
-109 -46 -148 -8 -14 -14 -35 -14 -46 0 -12 -4 -24 -10 -27 -5 -3 -10 -15 -10
-25 0 -10 -12 -41 -26 -67 -15 -26 -30 -66 -34 -88 -7 -40 -36 -129 -70 -215
-10 -25 -23 -67 -29 -95 -7 -27 -18 -57 -25 -65 -7 -8 -18 -35 -25 -60 -7 -25
-17 -54 -22 -65 -4 -11 -11 -39 -14 -62 -4 -24 -11 -45 -16 -48 -11 -8 -59
-103 -59 -120 0 -15 -28 -110 -43 -145 -6 -14 -12 -31 -13 -39 -1 -7 -7 -18
-13 -24 -6 -6 -11 -19 -11 -29 0 -10 -4 -27 -10 -38 -5 -11 -14 -28 -19 -38
-5 -10 -12 -38 -16 -62 -4 -25 -13 -54 -20 -65 -7 -12 -21 -54 -30 -95 -10
-41 -26 -84 -35 -95 -9 -11 -27 -56 -40 -100 -13 -44 -28 -89 -35 -100 -6 -11
-18 -40 -25 -65 -13 -47 -26 -83 -41 -112 -5 -10 -9 -37 -9 -61 0 -31 -6 -49
-20 -62 -11 -10 -20 -29 -20 -42 0 -41 -25 -86 -70 -127 -40 -36 -44 -38 -94
-32 -28 4 -132 9 -231 12 -99 2 -223 7 -275 9 -52 3 -149 6 -215 8 -66 2 -198
8 -294 12 -155 7 -174 7 -168 -7 3 -9 8 -37 11 -64 5 -49 5 -49 -4 -9 -6 22
-12 50 -15 62 -4 16 -15 23 -42 27 -44 7 -295 17 -493 20 -74 2 -144 6 -155 9
-11 4 -144 9 -295 11 -151 3 -300 8 -330 10 -50 5 -151 9 -450 21 -153 5 -351
25 -372 36 -12 6 -17 17 -14 32 3 12 7 38 11 58 3 21 12 42 19 48 7 6 16 30
20 52 9 55 41 152 72 213 13 28 24 57 24 66 0 9 7 25 15 36 8 10 15 27 15 37
0 9 4 25 10 35 21 38 51 114 57 145 3 17 14 42 23 54 10 13 21 40 25 60 4 21
11 43 16 49 5 6 18 39 29 74 11 35 26 71 34 79 7 9 16 33 19 55 3 21 13 46 21
55 8 9 20 39 27 66 7 28 20 68 30 90 10 22 31 78 47 125 16 47 43 114 59 150
17 36 34 81 37 100 11 53 27 92 53 123 14 17 23 42 23 62 0 38 50 168 76 196
17 18 16 20 -2 34 -15 12 -16 14 -2 9 13 -4 19 1 24 23 4 15 12 39 19 53 7 14
19 45 26 70 7 25 18 56 25 70 7 14 24 57 38 95 13 39 31 84 40 100 9 17 19 46
22 65 4 19 12 42 19 50 7 8 16 35 20 60 4 25 14 56 23 70 31 48 52 94 58 129
8 40 43 123 55 131 4 3 13 28 20 55 7 28 24 86 40 130 29 87 80 234 85 250 2
6 8 17 12 25 20 35 42 88 52 127 6 23 15 45 20 48 6 3 10 14 10 24 0 10 8 29
18 42 10 13 25 47 32 74 7 28 19 59 26 70 7 11 16 39 20 62 3 24 13 48 20 54
8 6 14 20 14 29 0 10 9 39 20 65 11 26 23 64 26 85 6 34 4 38 -19 44 -14 3
-31 4 -39 1 -7 -2 -44 -7 -83 -9 -122 -8 -353 -31 -505 -49 -19 -3 -57 -7 -85
-11 -27 -3 -80 -8 -117 -11 -37 -2 -95 -9 -130 -14 -35 -5 -85 -7 -112 -6 -27
2 -54 1 -60 -3 -6 -4 -24 -8 -41 -9 -16 -1 -66 -7 -110 -12 -44 -6 -132 -15
-195 -21 -63 -5 -135 -12 -160 -15 -25 -3 -74 -8 -110 -10 -36 -2 -83 -6 -105
-9 -22 -2 -67 -7 -100 -11 -33 -3 -89 -9 -125 -14 -36 -5 -117 -15 -180 -22
-63 -6 -128 -13 -145 -15 -16 -2 -68 -6 -115 -9 -157 -12 -175 -13 -190 -19
-16 -6 -87 -13 -200 -21 -103 -6 -110 -7 -210 -21 -52 -7 -147 -16 -210 -19
-63 -4 -135 -11 -160 -16 -25 -6 -81 -12 -125 -15 -44 -2 -132 -11 -195 -19
-127 -16 -178 -22 -260 -29 -108 -9 -176 -16 -238 -24 -75 -10 -109 -6 -121
17 -9 17 4 122 18 150 5 9 16 61 25 117 9 55 23 115 32 132 8 17 22 71 30 119
8 48 19 114 24 146 6 33 16 73 24 90 8 18 17 57 21 87 7 61 32 166 45 192 5 9
17 69 26 135 9 65 23 132 30 150 8 17 14 43 14 58 0 14 6 47 14 73 15 53 37
143 73 312 13 63 29 135 34 160 6 25 13 65 18 90 7 42 14 68 47 165 8 22 22
92 33 155 11 63 27 130 37 148 9 19 20 66 25 105 17 145 56 355 68 372 11 14
29 90 35 149 4 27 12 59 20 70 7 12 15 40 18 63 7 52 40 94 93 122 31 16 62
22 135 25 112 4 338 23 349 30 4 3 82 8 172 11 90 3 198 10 239 16 41 5 125
12 185 14 240 10 293 14 355 24 36 6 84 8 106 5 23 -3 50 -1 61 4 10 6 55 11
98 13 44 1 100 6 125 10 25 5 79 10 120 13 41 3 100 7 130 10 30 3 102 8 160
11 160 8 384 24 490 35 52 5 140 12 195 15 55 3 129 10 165 16 36 5 121 12
190 14 132 3 368 20 435 30 22 3 76 8 120 10 240 13 405 26 440 34 22 5 53 8
69 5 16 -2 46 -4 67 -4z m-8241 -3605 c19 -1 127 -6 240 -10 113 -4 223 -11
245 -15 23 -5 143 -9 268 -9 125 0 232 -3 237 -6 6 -4 108 -8 228 -11 119 -2
255 -8 302 -13 47 -5 182 -9 300 -11 118 -1 218 -4 222 -6 4 -3 51 -7 105 -10
54 -2 107 -6 118 -8 11 -2 29 -1 39 3 10 4 44 3 75 -1 31 -5 133 -11 226 -13
354 -10 390 -14 380 -48 -17 -57 -15 -66 12 -70 26 -4 26 -4 -4 -6 -28 -1 -33
-5 -33 -25 0 -13 -6 -29 -14 -35 -8 -6 -17 -32 -21 -58 -4 -25 -19 -71 -35
-102 -25 -49 -82 -199 -97 -256 -3 -11 -12 -27 -19 -35 -7 -8 -15 -37 -19 -63
-4 -26 -14 -54 -22 -62 -8 -8 -29 -57 -48 -108 -18 -52 -43 -115 -54 -140 -12
-25 -21 -53 -21 -61 0 -8 -4 -18 -10 -21 -5 -3 -10 -17 -10 -29 0 -13 -7 -29
-15 -36 -7 -6 -17 -31 -21 -56 -3 -24 -14 -53 -24 -64 -10 -11 -21 -37 -25
-58 -4 -20 -13 -48 -20 -62 -35 -68 -57 -123 -62 -155 -3 -19 -12 -40 -19 -46
-8 -6 -14 -22 -14 -35 0 -12 -4 -26 -10 -29 -5 -3 -10 -14 -10 -24 0 -17 -24
-84 -55 -156 -28 -65 -65 -172 -71 -205 -4 -19 -14 -44 -24 -55 -9 -11 -22
-40 -30 -65 -22 -78 -62 -184 -75 -200 -7 -8 -22 -42 -34 -75 -13 -33 -26 -64
-31 -70 -4 -5 -11 -28 -15 -50 -7 -44 -36 -127 -67 -193 -11 -24 -22 -61 -25
-83 -3 -21 -12 -44 -19 -50 -8 -6 -14 -22 -14 -35 0 -12 -4 -26 -10 -29 -5 -3
-10 -14 -10 -24 0 -10 -7 -24 -15 -31 -8 -7 -15 -20 -15 -30 0 -10 -6 -23 -14
-29 -7 -6 -16 -28 -18 -49 -3 -21 -15 -58 -26 -84 -12 -25 -24 -64 -28 -87 -4
-22 -13 -46 -20 -52 -8 -6 -14 -20 -14 -30 0 -10 -4 -21 -10 -24 -5 -3 -10
-17 -10 -29 0 -13 -7 -29 -15 -36 -8 -7 -15 -19 -15 -28 0 -8 -8 -24 -17 -34
-9 -10 -17 -26 -18 -36 -2 -31 -25 -62 -40 -56 -8 4 -15 1 -15 -6 0 -7 8 -10
20 -7 24 6 25 -5 5 -36 -8 -13 -16 -38 -18 -55 -2 -18 -14 -45 -25 -60 -15
-17 -22 -40 -22 -68 0 -28 -6 -46 -20 -59 -11 -10 -20 -26 -20 -35 0 -16 -35
-109 -67 -180 -9 -19 -18 -54 -21 -78 l-5 -43 74 5 c167 13 235 19 259 22 14
2 56 4 93 5 37 1 70 6 73 11 3 4 26 8 51 8 25 0 91 7 147 14 55 8 142 17 191
20 50 3 108 8 130 10 47 5 60 -1 44 -20 -24 -29 38 -9 69 23 7 7 28 13 46 13
18 0 82 7 142 16 60 8 129 17 154 19 25 2 59 6 75 9 17 3 91 8 165 11 74 4
141 10 150 15 22 11 89 19 215 26 61 3 114 9 120 12 5 3 28 7 50 8 90 4 196
15 295 30 58 8 138 15 179 15 41 0 80 3 85 8 6 5 58 11 116 15 58 4 121 9 140
11 19 2 60 6 90 9 30 3 64 8 75 11 21 5 121 14 190 15 22 0 76 5 120 11 44 5
100 12 125 14 25 2 63 6 85 9 22 2 74 7 115 10 41 4 102 11 135 16 33 6 100
13 150 16 49 3 96 9 105 14 15 7 163 3 189 -6 11 -3 12 -20 7 -79 -4 -41 -13
-89 -20 -107 -8 -18 -17 -67 -21 -108 -3 -41 -12 -88 -20 -105 -7 -16 -25 -91
-39 -167 -15 -75 -33 -152 -41 -172 -8 -19 -15 -48 -15 -65 0 -16 -6 -51 -14
-77 -26 -90 -66 -269 -73 -323 -3 -30 -12 -66 -20 -80 -7 -15 -13 -38 -13 -53
0 -28 -11 -82 -37 -178 -8 -30 -29 -125 -48 -210 -18 -85 -40 -184 -49 -220
-19 -74 -60 -254 -81 -350 -45 -214 -58 -270 -70 -315 -7 -27 -20 -86 -30
-130 -9 -44 -21 -93 -27 -110 -5 -16 -18 -88 -28 -160 -10 -71 -27 -151 -38
-176 -11 -26 -23 -72 -27 -103 -4 -30 -14 -61 -22 -68 -10 -8 -54 -13 -127
-14 -64 0 -125 -6 -144 -14 -21 -8 -59 -11 -107 -7 -52 3 -77 1 -84 -7 -8 -9
-51 -12 -157 -10 -109 2 -154 0 -173 -11 -45 -23 -180 -37 -313 -32 -85 3
-130 1 -138 -7 -13 -13 -163 -25 -373 -30 -81 -2 -153 -8 -160 -14 -14 -11
-208 -25 -377 -27 -63 -1 -131 -7 -150 -13 -19 -7 -69 -10 -110 -9 -41 2 -84
-1 -95 -7 -23 -11 -223 -25 -430 -31 -77 -2 -167 -9 -200 -15 -33 -6 -84 -9
-113 -7 -32 4 -65 1 -85 -7 -38 -16 -190 -28 -382 -31 -83 -1 -149 -6 -161
-13 -12 -6 -61 -11 -110 -11 -49 0 -114 -5 -144 -11 -35 -7 -115 -8 -224 -4
l-169 7 6 66 c4 36 15 94 26 127 11 34 25 90 31 125 6 35 18 74 25 85 8 12 17
50 21 85 4 35 16 84 26 109 11 24 25 86 33 137 8 51 19 101 24 112 6 11 11 32
11 47 0 28 46 171 60 189 5 6 14 48 20 95 6 46 20 103 31 127 10 23 25 88 33
145 16 110 77 364 100 413 8 17 20 68 27 115 7 52 19 94 30 109 11 14 19 41
20 65 0 22 11 82 25 131 13 50 29 115 35 145 5 30 23 105 39 165 16 61 32 133
36 160 3 28 12 57 20 65 7 8 18 56 24 105 7 50 16 97 20 105 4 9 11 36 15 60
4 25 12 51 18 58 5 7 10 38 11 70 l1 57 -690 -3 c-433 -2 -725 1 -782 8 -51 5
-281 11 -510 11 -230 0 -434 5 -455 10 -20 5 -206 10 -415 10 -384 1 -466 7
-482 38 -9 18 7 99 37 181 11 30 27 75 35 100 22 67 75 209 84 223 10 15 50
127 67 187 7 25 18 55 23 65 6 11 15 42 22 69 7 26 18 54 25 62 8 7 17 30 20
51 6 32 29 102 66 198 4 11 24 70 43 130 19 61 50 148 67 195 18 47 36 100 40
118 5 19 15 41 23 50 8 9 22 49 32 87 9 39 27 97 40 130 13 33 26 75 30 94 4
19 20 62 35 95 15 34 38 93 51 131 13 39 29 77 36 86 8 9 16 34 19 55 7 50 25
114 40 139 6 11 15 37 18 57 4 20 13 50 21 65 8 15 15 33 15 40 0 6 9 27 19
45 10 18 22 56 26 83 4 28 13 61 20 75 8 14 28 70 46 125 17 55 35 109 40 120
4 11 15 43 25 70 10 28 23 59 30 70 7 11 15 36 19 55 4 19 13 44 20 55 7 11
16 36 20 55 4 19 13 44 19 55 7 11 15 29 19 40 3 11 14 44 25 72 11 29 23 72
27 95 4 24 13 55 21 69 7 14 31 82 54 150 37 115 52 153 86 220 7 14 16 44 20
67 4 23 13 47 20 53 8 6 14 20 14 29 0 10 12 28 27 40 27 21 33 21 228 15 110
-4 216 -8 235 -10z m22391 -581 c36 -15 45 -26 80 -97 22 -45 46 -88 53 -96 8
-9 24 -40 36 -69 13 -29 32 -57 42 -63 11 -6 33 -39 50 -74 16 -35 36 -69 45
-76 20 -17 75 -104 114 -180 17 -34 35 -67 41 -73 17 -19 56 -89 91 -161 19
-38 41 -76 50 -84 10 -7 17 -19 17 -26 0 -7 7 -18 16 -26 8 -7 25 -31 36 -53
11 -23 24 -43 28 -46 4 -3 22 -35 39 -72 17 -36 38 -69 47 -72 8 -3 29 -36 46
-73 17 -38 40 -81 52 -98 11 -16 31 -51 42 -76 12 -25 33 -57 47 -70 14 -13
42 -62 63 -109 21 -47 50 -98 65 -115 15 -16 40 -57 57 -90 17 -34 48 -88 71
-122 22 -33 54 -89 70 -123 17 -35 37 -70 44 -79 6 -9 21 -33 31 -53 11 -21
22 -38 26 -38 5 0 15 -19 25 -42 21 -55 122 -217 148 -241 12 -10 24 -14 31
-9 6 5 20 12 31 15 19 7 19 7 1 -8 -10 -8 -23 -16 -28 -17 -14 -5 88 -214 107
-222 8 -3 30 -38 48 -78 19 -40 40 -80 48 -88 8 -8 25 -40 38 -70 14 -30 35
-64 47 -75 13 -11 45 -65 72 -120 27 -55 57 -107 66 -114 10 -8 33 -46 52 -83
19 -38 41 -71 49 -74 8 -4 35 -47 60 -98 85 -170 124 -241 135 -244 5 -2 10
-8 10 -14 0 -6 10 -25 23 -42 13 -17 38 -61 56 -98 18 -38 36 -68 41 -68 12 0
71 -90 108 -165 45 -92 115 -219 122 -225 4 -3 15 -19 24 -37 9 -17 24 -38 35
-45 10 -7 41 -61 68 -119 62 -130 77 -140 168 -109 33 11 69 25 80 29 50 22
113 41 147 45 21 3 45 9 55 14 10 5 29 8 43 5 25 -4 81 9 130 30 14 6 50 14
80 18 30 4 84 14 120 22 36 8 81 15 101 15 20 0 63 14 97 31 34 17 73 31 87
31 15 0 36 5 48 12 12 6 42 15 67 19 97 17 136 26 149 33 25 16 147 36 182 31
29 -5 50 0 99 25 42 21 70 30 86 26 15 -4 57 5 107 22 45 16 109 34 142 41 33
7 83 19 112 28 56 17 83 9 83 -26 0 -9 -94 -279 -209 -601 l-208 -585 -49 -27
c-61 -34 -180 -73 -214 -70 -14 1 -36 -2 -50 -7 -14 -5 -56 -14 -95 -21 -38
-7 -92 -22 -118 -33 -38 -16 -53 -18 -71 -9 -25 11 -70 2 -148 -32 -22 -10
-49 -13 -67 -10 -18 4 -37 2 -45 -5 -8 -7 -36 -14 -63 -16 -72 -4 -124 -15
-165 -32 -20 -9 -47 -13 -58 -10 -12 3 -40 -1 -63 -8 -61 -20 -156 -39 -163
-33 -3 4 -20 2 -37 -4 -18 -6 -57 -14 -87 -19 -30 -5 -75 -13 -100 -19 -25 -5
-69 -14 -99 -20 -29 -5 -59 -14 -66 -20 -20 -16 -113 -32 -177 -31 -31 1 -59
-3 -63 -9 -3 -6 -10 -8 -15 -5 -5 3 -27 -3 -48 -14 -22 -11 -57 -22 -80 -25
-23 -3 -50 -9 -60 -15 -13 -7 -31 -7 -52 -1 -28 8 -44 4 -107 -25 -52 -24 -90
-35 -122 -35 -92 0 -147 -8 -206 -30 -33 -13 -85 -26 -115 -30 -30 -4 -66 -10
-79 -14 -13 -3 -31 -1 -41 4 -13 7 -41 1 -101 -22 -47 -17 -101 -30 -122 -30
-22 1 -46 -2 -55 -7 -10 -5 -34 -12 -56 -15 -21 -4 -43 -9 -49 -13 -12 -7 -60
-17 -162 -33 -33 -5 -82 -14 -110 -20 -27 -6 -75 -14 -105 -18 -30 -4 -62 -12
-70 -17 -8 -6 -35 -11 -60 -12 -64 -3 -141 -17 -167 -31 -12 -7 -33 -12 -47
-12 -14 0 -40 -6 -58 -14 -45 -19 -122 -36 -162 -36 -18 0 -64 -11 -102 -25
-51 -19 -80 -24 -110 -19 -28 4 -51 1 -71 -10 -17 -8 -33 -13 -36 -10 -3 4
-27 -1 -54 -9 -92 -28 -153 -39 -182 -32 -17 4 -44 0 -66 -9 -21 -9 -48 -16
-62 -16 -13 0 -34 -5 -45 -11 -11 -6 -33 -12 -47 -14 -58 -7 -141 -24 -160
-34 -11 -6 -37 -10 -58 -9 -21 0 -48 -4 -60 -10 -12 -7 -32 -12 -45 -12 -13 0
-42 -7 -65 -15 -57 -20 -89 -26 -149 -30 -29 -2 -61 -8 -72 -14 -11 -6 -40
-11 -64 -11 -24 -1 -68 -10 -98 -21 -30 -12 -80 -22 -110 -24 -30 -2 -80 -8
-110 -15 -30 -7 -80 -14 -110 -14 -32 -1 -81 -12 -115 -25 -33 -14 -86 -28
-117 -33 -54 -7 -86 -13 -223 -35 -28 -5 -56 -12 -63 -17 -7 -4 -24 -10 -39
-12 -80 -15 -166 -35 -181 -43 -27 -14 -152 -6 -209 13 -43 14 -60 28 -100 79
-26 33 -62 75 -79 93 -17 18 -38 44 -47 57 -8 13 -29 30 -45 36 -17 7 -35 25
-42 40 -6 15 -29 52 -50 81 -22 30 -50 70 -61 88 -12 18 -34 39 -50 48 -16 8
-36 27 -46 42 -58 94 -87 134 -107 147 -13 9 -28 25 -33 38 -13 28 -46 69 -94
116 -20 20 -44 50 -53 68 -8 17 -25 34 -36 38 -11 4 -27 18 -34 33 -8 15 -26
39 -40 54 -14 15 -26 31 -26 36 0 5 -12 19 -26 33 -14 13 -35 41 -47 61 -11
21 -29 40 -39 44 -10 3 -25 19 -34 35 -8 16 -25 34 -37 40 -12 6 -44 48 -71
95 -26 46 -55 84 -62 84 -8 0 -24 15 -34 33 -11 19 -31 39 -44 47 -14 7 -30
25 -36 41 -7 15 -21 36 -31 45 -11 10 -30 35 -41 56 -12 21 -30 40 -40 44 -10
3 -24 16 -31 28 -11 22 -30 46 -98 129 -14 18 -34 46 -43 63 -10 17 -31 35
-46 41 -16 6 -36 26 -45 44 -10 19 -26 43 -36 54 -47 50 -98 116 -104 134 -3
11 -15 23 -26 26 -11 4 -31 24 -45 46 -13 21 -28 39 -33 39 -5 0 -14 13 -21
29 -6 16 -23 40 -36 52 -14 13 -32 38 -40 55 -8 17 -26 36 -39 42 -14 6 -30
25 -37 41 -7 16 -26 45 -43 66 -64 78 -95 118 -103 129 -4 6 -19 17 -34 23
-15 7 -36 29 -47 50 -11 21 -28 45 -38 54 -10 9 -34 38 -53 64 -19 26 -54 67
-77 91 -24 24 -43 47 -43 53 0 5 -16 29 -35 53 -19 23 -49 63 -67 87 -18 23
-50 60 -70 80 -21 20 -38 42 -38 48 0 6 -11 20 -24 30 -13 10 -31 33 -40 51
-9 18 -24 36 -32 39 -8 3 -40 40 -71 82 -31 42 -71 90 -90 107 -18 17 -33 34
-33 39 0 9 -45 64 -105 130 -22 24 -53 62 -70 85 -16 22 -47 61 -67 85 -20 25
-39 54 -43 65 -3 11 -17 23 -30 26 -14 3 -42 29 -62 57 -21 28 -50 67 -65 86
-15 20 -39 53 -54 74 -15 20 -30 37 -35 37 -5 0 -28 25 -51 57 -24 31 -55 72
-70 92 -15 20 -39 53 -53 74 -14 21 -37 42 -50 47 -14 5 -34 24 -44 42 -20 36
-50 74 -94 120 -15 17 -34 42 -41 57 -8 14 -28 36 -45 49 -17 12 -31 29 -31
36 0 12 -27 46 -93 118 -16 17 -33 42 -38 55 -5 13 -24 33 -43 44 -22 12 -50
47 -77 92 -24 40 -66 99 -95 133 -46 53 -104 157 -104 186 0 21 401 1134 413
1144 35 33 53 27 127 -47 39 -40 80 -88 91 -108 53 -94 73 -122 100 -138 16
-10 29 -22 29 -29 0 -6 10 -19 21 -30 24 -21 86 -115 99 -150 5 -12 23 -30 39
-40 17 -10 31 -22 31 -26 0 -10 71 -96 114 -138 20 -19 36 -39 36 -44 0 -5 11
-24 25 -42 14 -18 25 -37 25 -43 0 -6 29 -44 65 -85 36 -41 65 -79 65 -86 0
-6 16 -26 35 -46 19 -19 35 -38 35 -42 0 -4 14 -21 30 -39 17 -18 30 -36 30
-41 0 -5 12 -19 26 -33 14 -13 33 -37 41 -53 9 -17 27 -43 42 -59 14 -16 35
-39 46 -51 11 -12 40 -55 64 -94 24 -40 56 -81 72 -92 15 -12 31 -30 34 -41 4
-12 22 -27 40 -34 28 -12 40 -12 91 4 32 10 78 28 101 39 23 12 53 22 65 22
33 0 138 35 197 65 28 14 56 25 63 25 8 0 46 16 87 35 40 19 78 35 84 35 7 0
40 13 74 29 34 16 78 32 98 35 50 8 142 39 193 65 23 11 47 21 54 21 7 0 42
14 78 31 35 16 82 33 105 36 22 2 81 25 130 49 119 57 169 74 220 74 32 0 78
17 180 65 121 58 143 65 179 60 36 -5 60 3 210 75 112 53 180 80 200 79 50 -3
112 19 264 92 79 38 148 69 154 69 5 0 39 14 75 30 41 19 81 30 109 30 34 0
71 14 167 62 67 34 142 65 167 69 55 8 95 22 185 64 39 18 85 36 103 39 37 9
38 13 16 44 -9 13 -14 26 -11 29 3 2 13 -9 22 -26 9 -18 19 -30 23 -28 48 28
158 72 197 79 28 5 68 13 90 17 22 5 74 24 115 44 41 19 106 47 144 61 38 15
74 30 80 35 16 12 232 81 255 81 11 0 67 23 126 50 59 28 112 50 118 50 7 0
41 14 77 31 36 17 81 32 100 33 19 2 76 24 125 49 50 25 98 46 107 46 10 1 36
-6 59 -15z m-12109 -2739 c60 -77 160 -208 223 -291 l115 -151 -10 -70 c-5
-40 -22 -96 -40 -130 -16 -34 -35 -83 -42 -109 -7 -27 -20 -57 -29 -67 -9 -10
-20 -37 -23 -59 -4 -22 -13 -50 -21 -61 -8 -12 -15 -29 -15 -39 0 -10 -4 -18
-8 -18 -5 0 -19 -32 -31 -70 -13 -39 -27 -73 -32 -76 -5 -3 -9 -16 -9 -29 0
-13 -4 -27 -10 -30 -5 -3 -10 -14 -10 -24 0 -10 -7 -24 -15 -31 -8 -7 -15 -22
-15 -34 0 -12 -4 -26 -9 -31 -10 -11 -48 -110 -61 -160 -10 -41 -31 -85 -52
-114 -10 -13 -21 -45 -24 -72 -4 -27 -11 -52 -15 -55 -5 -3 -9 -12 -9 -21 0
-9 -7 -25 -16 -35 -10 -10 -21 -41 -25 -69 -5 -28 -15 -59 -24 -69 -8 -9 -15
-24 -15 -32 0 -9 -7 -21 -14 -28 -8 -6 -20 -37 -27 -68 -7 -31 -18 -64 -26
-73 -7 -8 -13 -23 -13 -33 0 -9 -6 -19 -14 -22 -7 -3 -19 -32 -26 -64 -7 -33
-19 -65 -26 -71 -8 -6 -14 -20 -14 -30 0 -10 -5 -31 -11 -46 -6 -15 -15 -37
-19 -48 -4 -11 -20 -48 -34 -81 -14 -34 -26 -65 -26 -70 -1 -5 -9 -27 -20 -49
-11 -22 -19 -44 -20 -49 0 -5 -6 -17 -13 -25 -15 -18 -32 -69 -42 -121 -7 -39
-19 -74 -47 -138 -10 -23 -21 -55 -24 -72 -4 -16 -12 -34 -19 -40 -7 -6 -25
-50 -41 -98 -15 -48 -36 -96 -46 -108 -10 -11 -18 -30 -18 -42 0 -11 -4 -24
-10 -27 -5 -3 -10 -16 -10 -29 0 -12 -4 -26 -8 -31 -5 -6 -15 -30 -22 -55 -7
-25 -19 -56 -26 -70 -13 -27 -31 -75 -59 -152 -9 -26 -21 -50 -26 -53 -5 -4
-9 -17 -9 -29 0 -13 -7 -29 -15 -36 -7 -6 -17 -31 -21 -55 -3 -24 -15 -52 -25
-61 -10 -9 -19 -25 -19 -34 0 -23 -28 -89 -45 -106 -7 -8 -16 -33 -20 -56 -4
-24 -13 -54 -20 -68 -36 -74 -69 -158 -110 -287 -15 -46 -24 -59 -72 -108 -29
-30 -40 -34 -133 -45 -55 -8 -103 -17 -106 -22 -3 -4 -47 -8 -99 -8 -52 0 -96
-4 -99 -8 -3 -5 -54 -12 -113 -16 -59 -4 -121 -9 -138 -12 -45 -8 -106 -16
-315 -39 -74 -9 -166 -20 -205 -25 -38 -6 -79 -11 -90 -11 -11 -1 -49 -5 -85
-10 -36 -4 -103 -11 -150 -14 -47 -4 -89 -11 -94 -16 -6 -5 -33 -9 -60 -9 -28
0 -82 -5 -121 -11 -38 -5 -95 -12 -125 -14 -179 -13 -303 -26 -318 -33 -9 -5
-50 -6 -90 -3 -49 4 -80 2 -95 -6 -12 -7 -45 -12 -74 -13 -28 0 -116 -9 -195
-21 -79 -12 -162 -19 -185 -16 -23 2 -46 0 -51 -5 -4 -4 -37 -11 -73 -13 -35
-3 -89 -10 -119 -16 -30 -6 -74 -9 -97 -6 -25 2 -50 -1 -60 -8 -19 -12 -133
-26 -263 -31 -41 -1 -82 -5 -90 -8 -26 -8 -73 -16 -125 -20 -27 -2 -95 -11
-150 -20 -55 -8 -123 -16 -152 -16 -28 0 -55 -5 -59 -11 -9 -16 -273 -2 -299
16 -45 30 -205 220 -205 243 0 4 -22 33 -48 63 -91 104 -193 247 -195 275 -2
21 3 29 24 34 25 7 173 19 324 26 39 2 92 8 120 14 27 6 56 8 63 5 7 -3 21 -1
30 4 9 5 82 11 162 14 80 4 159 9 175 12 17 3 107 9 202 13 203 9 205 10 222
107 6 35 18 79 26 98 15 36 26 93 63 312 4 28 12 57 17 65 11 17 60 235 80
358 8 45 23 102 34 125 11 23 25 82 31 131 7 55 18 98 30 115 12 18 22 59 30
131 6 58 17 112 24 120 18 20 24 47 41 170 19 141 31 195 49 222 8 13 17 59
21 103 4 44 13 94 21 110 10 23 44 177 44 200 0 2 -12 6 -27 8 -26 4 -26 4 5
6 30 1 32 3 32 36 0 20 9 61 21 93 12 31 25 80 30 107 6 28 14 73 19 100 23
121 42 200 54 224 7 14 16 54 19 87 6 62 20 131 39 192 5 18 14 60 18 94 14
100 7 97 258 92 119 -2 271 -6 337 -9 66 -3 192 -8 280 -10 88 -3 212 -7 275
-10 63 -3 158 -7 210 -9 52 -2 198 -10 323 -17 154 -8 231 -9 238 -2 6 6 14
57 19 114 l9 104 -4 -107 -4 -106 33 -6 c37 -7 179 -14 456 -21 102 -3 271 -9
375 -14 105 -5 210 -8 235 -8 80 0 343 -12 407 -19 57 -6 62 -4 76 17 8 13 18
44 22 69 8 48 35 130 66 196 10 22 19 49 19 60 0 10 7 28 15 38 8 11 15 26 15
34 0 7 11 37 24 65 13 29 27 68 31 87 8 42 31 112 45 140 5 11 15 29 20 40 6
11 10 28 10 39 0 25 35 107 49 115 6 4 11 24 11 44 0 21 6 47 14 58 8 11 25
53 39 94 40 120 47 131 76 128 19 -2 51 -36 133 -143z m4602 -3118 c20 -29 36
-56 36 -61 0 -4 20 -38 44 -75 24 -36 64 -106 90 -156 26 -49 53 -94 60 -100
7 -5 29 -41 50 -80 20 -38 43 -76 51 -85 8 -9 24 -38 36 -65 12 -28 39 -76 61
-107 21 -32 42 -66 46 -76 4 -10 15 -29 25 -42 24 -33 76 -120 149 -250 33
-58 65 -112 72 -120 7 -8 42 -66 77 -128 94 -166 170 -296 228 -392 29 -47 66
-113 82 -147 17 -35 34 -63 40 -63 5 0 23 -27 38 -60 16 -33 40 -75 53 -92 14
-18 47 -76 75 -128 27 -53 62 -114 76 -135 14 -22 29 -52 33 -68 5 -24 3 -29
-25 -38 -36 -13 -37 -16 -10 -49 33 -42 80 -110 75 -110 -2 0 -27 31 -56 70
-57 77 -56 76 -160 44 -25 -7 -65 -16 -90 -18 -52 -6 -242 -49 -313 -72 -26
-8 -52 -12 -57 -9 -6 4 -47 -3 -93 -14 -97 -25 -226 -51 -247 -52 -8 0 -34 -7
-58 -16 -23 -8 -49 -12 -57 -9 -8 3 -29 -1 -47 -8 -18 -8 -60 -17 -92 -21 -33
-4 -71 -11 -85 -17 -14 -5 -39 -11 -56 -13 -16 -2 -68 -13 -115 -25 -47 -12
-96 -23 -110 -25 -45 -7 -155 -34 -184 -45 -16 -6 -34 -9 -41 -7 -6 3 -60 -8
-120 -23 -61 -15 -113 -26 -116 -24 -8 5 -167 -24 -187 -34 -9 -5 -53 -17 -97
-26 -44 -9 -93 -22 -110 -28 -16 -5 -45 -12 -63 -14 -18 -2 -37 -6 -43 -9 -5
-4 -42 -10 -82 -15 -69 -8 -104 -15 -212 -46 -27 -8 -102 -23 -165 -35 -63
-11 -128 -24 -145 -29 -16 -4 -47 -11 -67 -15 -34 -5 -38 -9 -39 -38 -2 -30
-2 -30 -6 -4 -4 22 -9 27 -33 27 -16 0 -44 -6 -62 -14 -30 -13 -158 -40 -233
-50 -16 -2 -47 -11 -68 -19 l-38 -16 45 -63 c47 -65 60 -82 123 -159 21 -25
45 -56 53 -69 8 -13 31 -40 50 -61 19 -21 45 -51 57 -66 12 -15 42 -52 67 -81
25 -29 53 -66 61 -82 9 -17 20 -30 26 -30 5 0 12 -8 16 -17 6 -16 45 -66 92
-118 10 -11 22 -27 27 -36 5 -9 28 -38 51 -65 23 -27 59 -70 80 -95 21 -26 53
-65 72 -87 19 -22 46 -58 61 -80 37 -56 89 -121 130 -164 37 -39 47 -52 110
-137 22 -30 44 -57 49 -61 5 -3 37 -41 71 -85 64 -84 108 -139 150 -186 36
-40 43 -50 69 -91 12 -21 27 -38 32 -38 5 0 21 -19 36 -42 15 -24 34 -50 43
-58 28 -26 90 -108 90 -119 0 -5 6 -14 13 -18 18 -11 147 -170 162 -200 8 -15
18 -29 23 -32 12 -7 125 -146 172 -211 19 -26 58 -73 86 -103 28 -31 69 -82
90 -113 21 -31 45 -59 52 -61 19 -8 95 -140 87 -153 -9 -15 -74 -46 -125 -60
-25 -7 -66 -23 -93 -37 -27 -13 -77 -33 -113 -44 -35 -11 -93 -33 -129 -49
-35 -16 -82 -32 -102 -36 -21 -4 -56 -16 -78 -27 -22 -11 -53 -24 -70 -28 -50
-13 -222 -77 -257 -95 -18 -9 -46 -21 -63 -25 -16 -4 -55 -17 -85 -29 -30 -12
-86 -32 -125 -45 -38 -12 -115 -41 -170 -64 -55 -22 -106 -41 -113 -41 -8 0
-41 -11 -75 -24 -34 -14 -107 -41 -162 -61 -55 -19 -136 -49 -180 -66 -78 -30
-115 -44 -185 -69 -19 -6 -64 -23 -100 -37 -36 -13 -78 -28 -95 -32 -16 -5
-74 -29 -127 -54 -53 -25 -114 -48 -136 -51 -22 -3 -60 -15 -85 -27 -33 -16
-51 -20 -66 -13 -10 5 -62 65 -115 134 -52 69 -101 131 -107 139 -7 7 -26 34
-43 60 -50 74 -151 204 -180 230 -14 14 -26 29 -26 36 0 6 -8 18 -17 27 -22
20 -32 34 -57 73 -11 17 -45 62 -76 100 -31 39 -73 96 -93 128 -20 31 -41 57
-46 57 -5 0 -20 19 -34 43 -23 38 -89 123 -136 172 -10 11 -30 38 -44 60 -24
39 -118 165 -174 234 -16 18 -50 66 -76 105 -27 39 -56 78 -65 86 -9 8 -36 40
-59 70 -24 30 -47 60 -52 66 -5 6 -37 49 -70 95 -115 157 -150 204 -169 224
-11 11 -31 38 -45 60 -13 22 -39 55 -56 72 -17 18 -31 38 -31 45 0 7 -9 21
-20 33 -11 11 -70 85 -131 165 -61 80 -116 148 -124 152 -7 4 -18 22 -25 40
-7 18 -21 42 -31 53 -10 11 -26 29 -36 40 -67 74 -183 240 -183 261 0 14 15
22 115 61 75 30 218 74 238 73 10 0 40 11 67 25 27 14 56 25 64 25 21 0 102
28 161 55 66 31 234 85 262 85 12 0 52 14 88 30 36 17 72 30 80 30 21 0 103
29 160 57 28 14 84 35 126 48 42 13 91 31 109 40 18 10 50 19 70 21 20 2 66
17 101 34 35 16 77 30 92 30 15 0 46 9 69 21 51 26 112 49 158 59 19 5 71 22
115 40 44 17 94 35 110 39 17 4 49 18 72 29 23 12 55 22 70 22 15 0 64 15 108
34 92 38 136 54 184 66 53 13 58 24 33 72 -45 85 -118 206 -147 244 -16 21
-40 60 -52 85 -11 26 -27 51 -35 55 -14 9 -45 60 -94 151 -12 23 -29 49 -37
58 -9 8 -34 48 -57 88 -82 142 -112 192 -136 224 -14 18 -41 62 -60 99 -19 37
-48 83 -64 103 -16 20 -40 58 -55 86 -14 27 -32 56 -40 65 -8 9 -21 31 -30 50
-17 38 -39 74 -102 171 -22 35 -63 99 -90 142 -26 43 -58 93 -70 110 -12 18
-27 43 -33 57 -6 14 -18 32 -26 41 -8 9 -28 42 -44 75 -39 76 -64 117 -110
179 -21 28 -54 79 -74 115 -21 36 -48 83 -62 105 -52 87 -39 95 251 160 308
68 390 88 430 101 23 8 51 14 65 14 13 0 51 9 84 19 34 11 79 24 101 29 22 6
74 19 115 30 41 11 134 33 205 47 175 37 180 38 335 78 202 52 320 79 360 82
19 2 60 12 90 23 69 25 126 40 215 57 39 7 88 20 110 29 22 8 50 15 63 16 13
0 32 5 42 10 22 12 122 35 380 90 138 29 221 49 270 65 30 9 91 25 135 35 44
11 109 26 145 34 133 31 207 43 266 45 l62 1 36 -53z m4244 -1490 c34 -25 92
-94 92 -108 0 -5 16 -26 36 -46 20 -21 47 -56 61 -78 14 -22 37 -51 50 -65 13
-13 38 -44 55 -70 17 -25 37 -49 44 -53 8 -4 14 -12 14 -17 0 -12 81 -120 90
-120 3 0 17 -20 29 -45 12 -25 26 -45 31 -45 5 0 19 -17 31 -37 13 -21 29 -42
36 -46 7 -4 13 -13 13 -18 0 -10 53 -80 90 -121 8 -9 33 -41 54 -72 22 -31 43
-56 48 -56 4 0 17 -19 29 -42 12 -24 28 -47 34 -53 7 -5 61 -73 120 -150 59
-77 113 -145 120 -150 7 -6 22 -29 34 -53 12 -23 25 -42 30 -42 5 0 26 -26 46
-57 21 -32 46 -67 56 -78 20 -22 183 -235 239 -313 39 -55 90 -121 105 -138
18 -20 85 -108 200 -264 63 -85 125 -167 137 -182 27 -31 122 -157 215 -283
36 -49 73 -97 83 -105 25 -22 60 -84 60 -107 0 -21 -68 -56 -165 -86 -85 -26
-146 -49 -257 -95 -59 -24 -110 -42 -115 -39 -5 3 -43 -10 -84 -28 -40 -19
-87 -35 -102 -35 -15 0 -49 -11 -75 -24 -26 -13 -66 -27 -89 -31 -22 -3 -74
-20 -113 -36 -40 -16 -81 -29 -91 -29 -11 0 -39 -10 -62 -22 -23 -11 -78 -33
-122 -48 -44 -15 -93 -33 -110 -39 -16 -6 -57 -19 -90 -30 -85 -28 -124 -41
-175 -62 -25 -10 -85 -30 -135 -44 -49 -15 -105 -33 -123 -41 -18 -8 -40 -14
-50 -14 -9 0 -46 -14 -80 -30 -35 -17 -70 -30 -77 -30 -7 0 -32 -9 -57 -20
-24 -10 -69 -26 -99 -35 -178 -50 -389 -130 -389 -147 0 -10 51 -101 100 -178
15 -25 50 -81 76 -125 26 -44 50 -82 55 -85 4 -3 24 -36 44 -74 20 -38 49 -85
65 -105 16 -20 43 -64 60 -98 17 -34 36 -65 41 -69 6 -3 20 -29 33 -57 13 -29
33 -61 46 -72 12 -11 31 -37 42 -58 10 -21 36 -63 56 -94 20 -30 48 -76 61
-102 12 -25 35 -62 50 -81 15 -19 32 -47 38 -61 6 -14 28 -51 49 -83 22 -32
46 -70 54 -84 22 -38 53 -86 60 -92 4 -3 23 -36 45 -75 21 -38 52 -88 69 -109
16 -22 40 -60 52 -86 21 -46 73 -129 114 -182 11 -14 20 -31 20 -36 0 -6 11
-24 25 -40 14 -17 32 -45 41 -64 25 -53 47 -90 81 -137 18 -23 35 -53 39 -65
3 -11 12 -28 19 -36 8 -8 16 -26 20 -40 5 -21 1 -29 -20 -40 -15 -8 -44 -13
-66 -13 -21 1 -39 -2 -39 -8 0 -5 -17 -9 -37 -9 -21 0 -47 -7 -57 -15 -11 -8
-29 -12 -43 -9 -14 4 -23 2 -23 -5 0 -6 -8 -11 -19 -11 -10 0 -32 -7 -47 -15
-16 -8 -39 -15 -51 -15 -12 0 -25 -4 -28 -10 -4 -6 -37 -7 -85 -4 -78 6 -79 6
-140 -31 -36 -22 -69 -35 -80 -32 -11 3 -25 -2 -31 -9 -7 -8 -17 -13 -23 -11
-6 2 -30 -4 -53 -14 -34 -14 -49 -16 -73 -8 -17 6 -38 8 -48 4 -9 -5 -25 -10
-35 -11 -10 -2 -29 -11 -42 -20 -14 -9 -31 -14 -39 -11 -8 3 -16 2 -18 -4 -2
-5 -20 -11 -41 -13 -21 -2 -40 -6 -44 -10 -3 -3 -20 -6 -36 -6 -17 0 -38 -6
-46 -14 -24 -20 -61 -30 -61 -15 0 8 -7 6 -20 -6 -15 -14 -29 -16 -60 -11 -22
3 -40 3 -40 -1 0 -5 -12 -14 -27 -20 -21 -10 -28 -10 -35 0 -7 11 -12 2 -9
-17 1 -5 -11 -6 -27 -3 -16 3 -33 2 -39 -4 -17 -17 -72 -29 -79 -17 -5 7 -11
6 -18 -4 -10 -13 -26 -19 -91 -33 -11 -2 -37 -9 -58 -14 -20 -5 -46 -7 -56 -4
-10 3 -33 -3 -51 -12 -20 -10 -42 -14 -61 -10 -23 5 -29 3 -29 -10 0 -11 -5
-15 -14 -12 -7 3 -24 -1 -36 -10 -16 -12 -35 -14 -75 -9 -32 4 -56 2 -60 -4
-3 -5 2 -10 12 -10 15 0 16 -2 3 -10 -8 -5 -26 -9 -40 -9 -17 1 -19 3 -7 6 9
2 17 8 17 12 0 10 -59 1 -66 -10 -3 -5 -12 -9 -20 -9 -9 0 -22 -7 -30 -15 -9
-8 -24 -15 -35 -15 -11 0 -31 -7 -44 -16 -20 -13 -30 -14 -61 -4 -29 10 -38
10 -45 -1 -4 -7 -11 -10 -14 -7 -4 4 -24 -2 -46 -14 -27 -14 -48 -18 -69 -13
-22 5 -30 3 -30 -8 0 -9 -12 -14 -36 -15 -20 -1 -42 -6 -49 -12 -8 -7 -37 -8
-78 -4 -63 6 -66 6 -138 -37 l-74 -44 -91 2 c-66 2 -97 -2 -110 -12 -12 -9
-14 -14 -6 -15 7 0 10 -5 7 -11 -4 -6 -14 -8 -22 -5 -8 4 -36 -1 -61 -10 -25
-8 -57 -12 -71 -9 -13 3 -27 2 -30 -3 -8 -13 -25 -14 -170 -13 l-124 1 -41 43
c-39 42 -92 121 -131 198 -10 19 -30 53 -46 75 -15 21 -39 62 -52 89 -14 28
-32 57 -41 64 -9 7 -16 19 -16 26 0 8 -11 27 -25 43 -14 17 -32 45 -40 64 -9
18 -20 40 -25 48 -5 8 -17 33 -27 55 -19 44 -44 84 -85 133 -16 18 -28 39 -28
47 0 20 -19 54 -52 90 -15 17 -34 47 -42 67 -9 20 -21 40 -27 44 -6 3 -21 27
-33 53 -11 25 -29 57 -39 71 -39 55 -67 102 -109 182 -24 46 -55 100 -69 119
-14 19 -43 66 -64 104 -21 39 -44 75 -51 80 -7 6 -35 53 -62 105 -55 104 -88
164 -113 201 -9 13 -35 58 -59 99 -24 41 -49 82 -56 90 -22 27 -124 236 -124
254 0 19 55 46 94 46 14 0 49 9 78 19 29 11 76 24 103 30 89 20 249 52 275 55
14 1 41 8 60 14 19 6 44 11 55 11 11 0 61 10 110 21 50 12 106 23 125 24 19 1
45 7 57 14 12 7 35 12 52 12 16 0 42 5 58 11 15 7 48 15 73 19 109 19 269 53
314 67 26 9 72 17 101 19 30 2 66 9 82 17 15 8 71 22 123 31 52 9 113 21 135
26 22 4 85 18 140 30 55 13 120 26 145 30 25 3 65 12 90 19 25 7 63 17 85 23
22 6 65 13 95 15 30 2 71 10 92 18 20 8 60 17 90 20 29 4 67 11 83 17 17 6 55
16 85 24 30 7 93 23 140 34 47 12 99 23 115 25 17 3 41 6 55 8 14 2 42 9 62
16 20 7 60 14 90 16 50 4 89 12 183 38 22 6 49 12 60 14 28 3 147 30 168 38 9
4 17 13 17 20 0 12 -108 158 -133 179 -8 6 -22 25 -32 41 -21 33 -117 155
-153 195 -37 40 -46 51 -102 125 -30 39 -63 80 -74 92 -43 46 -60 69 -82 111
-3 7 -31 38 -60 70 -29 31 -54 60 -54 65 0 4 -9 16 -21 28 -12 12 -55 65 -96
118 -41 53 -80 101 -87 106 -7 6 -23 29 -36 53 -13 23 -27 42 -31 42 -3 0 -26
26 -49 58 -24 31 -51 66 -61 77 -62 67 -89 99 -89 105 0 3 -14 22 -31 41 -17
19 -69 84 -115 144 -46 61 -105 134 -132 164 -26 29 -64 77 -84 105 -48 67
-68 92 -115 146 -22 25 -72 88 -112 140 -41 52 -95 120 -122 150 -26 30 -63
76 -81 102 -32 46 -110 141 -166 203 -15 17 -38 47 -51 68 -12 20 -26 37 -30
37 -5 0 -21 18 -37 41 -15 22 -43 57 -61 77 -35 38 -50 73 -38 92 8 14 100 60
119 60 14 0 36 8 131 50 22 9 56 21 75 25 19 4 87 30 150 58 63 28 123 50 134
49 10 0 36 8 56 18 51 26 142 60 160 60 8 0 58 19 110 41 52 23 109 45 125 50
17 4 62 20 100 34 39 15 106 39 150 54 44 16 99 38 122 50 23 11 49 21 58 21
9 0 53 15 98 33 105 43 143 57 192 68 22 5 63 19 90 30 28 12 65 27 83 35 18
8 40 14 50 14 9 0 80 28 157 61 193 84 225 97 265 105 19 3 56 17 82 30 26 13
58 24 70 24 13 1 34 7 48 15 39 22 101 19 138 -8z m-4291 -5163 c15 -4 37 -32
64 -83 23 -42 50 -87 59 -101 38 -56 89 -139 127 -205 22 -38 50 -86 61 -105
12 -19 38 -64 58 -100 21 -36 42 -68 47 -71 4 -3 24 -37 43 -75 20 -38 44 -78
54 -89 10 -11 26 -40 37 -65 11 -25 27 -51 36 -59 10 -7 17 -19 17 -26 0 -7
15 -35 33 -63 19 -27 37 -57 40 -66 4 -9 39 -71 79 -137 158 -262 218 -366
218 -378 0 -5 7 -15 17 -22 9 -8 25 -34 36 -59 11 -25 27 -53 35 -63 19 -21
51 -73 85 -137 45 -84 121 -212 157 -265 15 -22 48 -79 74 -128 26 -48 54 -93
61 -100 7 -8 25 -37 39 -65 35 -69 50 -76 117 -51 30 11 88 27 129 34 71 13
105 21 194 44 22 5 43 8 48 5 4 -3 21 2 37 10 30 16 150 47 276 71 119 23 165
34 208 49 23 7 59 16 79 20 l38 7 -2 -41 c-1 -22 -5 -43 -10 -46 -4 -3 -8 -16
-8 -29 0 -13 -4 -27 -10 -30 -5 -3 -10 -17 -10 -30 0 -13 -4 -27 -10 -30 -5
-3 -10 -15 -10 -26 0 -10 -4 -27 -10 -37 -5 -9 -19 -46 -31 -82 -12 -36 -25
-69 -30 -74 -5 -6 -9 -20 -9 -32 0 -13 -4 -26 -10 -29 -5 -3 -10 -16 -10 -29
0 -12 -3 -26 -7 -30 -5 -4 -13 -24 -18 -44 -12 -41 -58 -74 -109 -77 -17 -1
-44 -7 -60 -14 -17 -7 -39 -11 -50 -9 -12 1 -38 -6 -59 -16 -29 -14 -41 -16
-50 -7 -13 13 -47 15 -47 2 0 -15 -56 -33 -112 -36 -29 -1 -65 -8 -81 -14 -15
-6 -47 -8 -74 -4 -38 5 -48 3 -59 -12 -8 -11 -14 -14 -14 -8 0 6 -9 9 -20 6
-11 -3 -20 -9 -20 -14 0 -5 -27 -9 -60 -9 -33 0 -60 -4 -60 -10 0 -5 -9 -10
-20 -10 -12 0 -32 -7 -46 -16 -19 -13 -37 -15 -79 -10 -35 4 -55 2 -55 -4 0
-5 -8 -10 -18 -10 -10 0 -23 -5 -30 -12 -6 -6 -36 -12 -65 -12 -37 -1 -59 -6
-71 -19 -19 -19 -51 -23 -61 -7 -9 14 -38 12 -71 -5 -16 -8 -37 -12 -46 -9
-12 3 -18 0 -18 -9 0 -10 -13 -16 -39 -19 -22 -2 -37 0 -35 4 8 13 -40 8 -59
-6 -9 -7 -29 -11 -44 -8 -20 4 -25 2 -21 -10 5 -11 -2 -14 -30 -13 -21 1 -46
-4 -57 -11 -26 -15 -107 -29 -85 -15 12 9 11 11 -6 11 -12 0 -24 -6 -27 -14
-3 -7 -21 -15 -41 -18 -19 -2 -32 0 -30 4 3 4 -1 8 -10 8 -8 0 -16 -6 -18 -12
-3 -8 -22 -12 -49 -12 -24 0 -47 -4 -51 -10 -3 -5 -27 -9 -52 -9 -33 1 -46 -3
-46 -13 0 -8 -3 -15 -7 -15 -44 -8 -61 -10 -80 -10 -12 1 -38 -6 -58 -15 -20
-8 -45 -12 -55 -9 -11 3 -28 1 -40 -5 -15 -8 -20 -8 -20 1 0 8 -6 7 -17 -3
-22 -19 -98 -35 -88 -19 10 17 -31 13 -44 -3 -9 -11 -26 -13 -64 -9 -58 5
-107 -9 -107 -31 0 -10 -9 -15 -27 -14 -16 0 -53 -7 -83 -16 -30 -9 -69 -16
-86 -16 -16 0 -35 -5 -41 -11 -8 -8 -17 -8 -30 -1 -13 8 -22 7 -33 -3 -21 -19
-70 -30 -70 -16 0 14 -27 14 -32 0 -4 -13 -78 -30 -78 -18 0 13 -24 11 -56 -5
-15 -9 -40 -12 -56 -9 -15 3 -28 1 -28 -4 0 -15 -48 -34 -55 -23 -8 13 -42 13
-47 0 -1 -5 -16 -11 -33 -13 -16 -2 -41 -9 -55 -14 -14 -6 -41 -15 -60 -21
-32 -10 -33 -10 -16 3 18 14 15 15 -42 16 -34 1 -65 2 -69 3 -15 3 -138 133
-152 159 -8 15 -34 47 -57 72 -24 24 -48 54 -55 66 -16 31 -99 132 -115 142
-8 4 -14 14 -14 22 0 8 -9 19 -20 25 -10 6 -34 32 -52 57 -18 26 -54 69 -80
96 -26 27 -48 52 -48 56 0 5 -29 41 -65 81 -36 40 -65 78 -65 86 0 7 -9 19
-20 27 -11 8 -40 39 -63 69 -23 29 -59 71 -79 92 -21 22 -38 45 -38 53 0 7 -5
13 -10 13 -6 0 -16 11 -22 25 -6 13 -18 27 -27 30 -9 3 -27 22 -41 42 -34 52
-42 62 -67 88 -13 12 -23 27 -23 32 0 6 -32 43 -70 84 -39 40 -83 91 -98 113
-15 22 -36 50 -47 62 -34 38 -45 53 -45 62 0 5 -19 29 -42 55 -64 68 -175 200
-254 301 -38 49 -86 107 -107 129 -20 22 -45 55 -53 74 -9 18 -28 40 -43 49
-15 9 -38 32 -51 52 -14 21 -31 43 -37 50 -7 7 -13 18 -13 23 0 5 -11 15 -25
21 -13 6 -27 19 -30 28 -3 9 -19 30 -35 46 -16 16 -30 33 -30 38 0 5 -10 19
-22 31 -13 12 -36 40 -53 61 -16 21 -43 52 -58 69 -32 35 -116 149 -134 184
-7 13 -13 31 -13 40 1 35 206 584 222 595 14 8 24 4 54 -24 19 -19 42 -48 50
-63 9 -16 32 -47 52 -69 20 -23 46 -55 57 -73 20 -33 73 -99 110 -139 12 -11
29 -34 40 -51 10 -16 72 -100 138 -185 66 -85 125 -163 131 -175 6 -11 26 -36
44 -53 36 -35 56 -36 127 -7 16 7 53 20 80 28 28 8 95 34 150 57 55 23 123 48
150 55 28 8 81 27 118 44 38 17 74 31 81 31 6 0 43 13 81 30 39 16 82 30 98
30 15 0 59 16 97 35 38 19 83 35 100 35 17 0 66 18 110 40 44 22 92 40 106 40
15 0 66 18 113 39 122 56 188 81 195 74 4 -4 41 9 84 29 42 20 97 42 122 49
67 19 141 55 132 64 -4 5 -2 5 5 2 6 -4 31 1 55 11 23 11 61 22 83 26 22 4 85
27 140 51 55 24 123 49 150 56 28 6 89 29 136 50 47 21 103 42 125 47 21 5 57
18 79 30 46 24 43 24 72 16z"/>
</g>
</svg>
